<svg id="Слой_1" data-name="Слой 1" xmlns="http://www.w3.org/2000/svg" viewBox="0 0 114.4 125.74"><style>@media (prefers-color-scheme: dark) {path {filter: invert(100%);}}</style> <path d="M28.84,126.87a90.47,90.47,0,0,0-4.4-31.07,80.29,80.29,0,0,0-9-18.89A50.13,50.13,0,0,1,7.6,58.27a37.19,37.19,0,0,1-.74-5.83c-.11-4.7,0-9.41,0-14.29a57.74,57.74,0,0,0,6.17,0c2.23-.25,3.36.59,4.43,2.54C21.18,47.5,25.18,54.21,29.09,61c.2.35.42.69.71,1.17l10-5.78V67.56H69.37V56.31l10.14,5.83c.28-.46.53-.86.77-1.27Q86.54,50,92.77,39.17a1.77,1.77,0,0,1,1.82-1c2.61.07,5.23,0,8,0v4.59c0,2.46,0,4.91,0,7.37a4,4,0,0,0,.62,2q8.55,12.67,17.16,25.3c.25.36.47.73.81,1.27h-6.89c-7,0-11.72,4.69-11.73,11.69v21.74H84.83c-7.08,0-11.74,4.68-11.74,11.79v3Z" transform="translate(-6.8 -1.13)"/><path d="M84.2,39.32c-2.48,4.31-4.89,8.48-7.37,12.76-2.26-1.3-4.48-2.52-6.62-3.85a1.77,1.77,0,0,0-2.35.11A31.4,31.4,0,0,1,63,51.13a1.39,1.39,0,0,0-1,1.54c0,2.48,0,5,0,7.53H47.28V55.51c0-1.23.39-2.69-.14-3.62s-2-1.17-3-1.78a21.4,21.4,0,0,1-2.85-1.9,1.39,1.39,0,0,0-1.93-.09c-2.23,1.34-4.51,2.62-6.85,4L25.11,39.34c2.19-1.27,4.3-2.57,6.49-3.72a2,2,0,0,0,1.17-2.31,40.56,40.56,0,0,1,0-5.62,1.3,1.3,0,0,0-.74-1.45c-2.31-1.3-4.59-2.64-7-4L32.47,9.48A41.27,41.27,0,0,1,37,12.14c2.13,1.58,4,2.09,6.11-.07a6.18,6.18,0,0,1,2.69-1.42c1.28-.38,1.52-1.12,1.47-2.33-.09-2.28,0-4.58,0-6.87a2.82,2.82,0,0,1,.07-.32H62c0,2.57,0,5.14,0,7.71a1.48,1.48,0,0,0,1,1.61,40.48,40.48,0,0,1,5,2.88,1.5,1.5,0,0,0,1.92.14c2.22-1.36,4.51-2.62,6.89-4L84.2,22.22,81,24.12c-1.27.74-2.58,1.43-3.8,2.24a1.66,1.66,0,0,0-.61,1.21c-.06,2.12,0,4.24-.06,6.36a1.3,1.3,0,0,0,.8,1.41C79.56,36.63,81.82,38,84.2,39.32Zm-40.61-8.6a11.06,11.06,0,1,0,11.18-11A11.11,11.11,0,0,0,43.59,30.72Z" transform="translate(-6.8 -1.13)"/><path d="M54.65,27.1A3.68,3.68,0,1,1,51,30.75,3.72,3.72,0,0,1,54.65,27.1Z" transform="translate(-6.8 -1.13)"/></svg>
